<svg width="401" height="172" viewBox="0 0 401 172" fill="none" xmlns="http://www.w3.org/2000/svg">
<path d="M95.3821 146.208H37.7624C36.067 146.208 34.7991 144.651 35.1422 142.991L38.0952 128.702C38.4034 127.211 39.7167 126.141 41.2395 126.141H74.1609C75.6726 126.141 76.9796 125.087 77.2991 123.609L77.5415 122.488C77.6857 121.821 77.1776 121.191 76.4954 121.191H49.2725C44.3392 121.191 40.6585 116.648 41.6822 111.822L53.9584 53.9487C54.3779 51.9707 56.1242 50.5561 58.1461 50.5561H84.8723C86.4068 50.5561 87.5498 51.972 87.2262 53.4719L76.9034 101.321C76.6877 102.321 77.4497 103.265 78.4726 103.265H79.1031C80.6183 103.265 81.9273 102.206 82.2432 100.724L92.2165 53.9444C92.6377 51.9685 94.383 50.5561 96.4033 50.5561H123.142C124.674 50.5561 125.816 51.9668 125.498 53.4648L107.944 136.036C106.683 141.967 101.446 146.208 95.3821 146.208Z" fill="white"/>
<path fill-rule="evenodd" clip-rule="evenodd" d="M193.65 50.4223C198.425 50.4223 202.005 54.7534 201.152 59.4142L201.108 59.6363L194.013 92.9418C193.645 94.671 192.118 95.9072 190.35 95.9072H157.622C156.086 95.9072 154.761 96.9829 154.444 98.4855C154.202 99.6388 155.082 100.723 156.26 100.723H189.727C191.087 100.723 192.103 101.976 191.821 103.307L188.66 118.222C188.293 119.953 186.765 121.191 184.995 121.191H126.231C121.126 121.191 117.318 116.489 118.379 111.496L129.265 60.2775L129.324 60.0092C130.644 54.4038 135.651 50.4223 141.434 50.4223H193.65ZM163.671 68.2149C161.911 68.2149 160.389 69.4399 160.012 71.1588L159.028 75.6496C158.735 76.9848 159.752 78.2484 161.119 78.2484H161.419C163.053 78.2484 164.466 77.1109 164.816 75.5147L165.847 70.8136C166.139 69.4785 165.122 68.2149 163.756 68.2149H163.671Z" fill="white"/>
<path d="M200.683 86.2128L206.006 61.1546C207.318 54.9752 212.774 50.556 219.092 50.556H275.577C276.965 50.556 278.164 49.5872 278.455 48.2309L281.601 33.5822C281.972 31.8559 283.498 30.6229 285.263 30.6229H312.497C313.86 30.6229 314.876 31.8801 314.59 33.2128L311.352 48.2899C311.101 49.456 311.99 50.556 313.183 50.556H313.708C315.069 50.556 316.084 51.8094 315.802 53.1407L313.232 65.2546C312.866 66.9805 311.342 68.2149 309.578 68.2149C308.145 68.2149 306.907 69.2179 306.609 70.6201L296.422 118.647C296.107 120.13 294.797 121.191 293.281 121.191H273.227C267.948 121.191 264.012 116.326 265.115 111.164L273.255 73.077C273.54 71.7448 272.524 70.4891 271.162 70.4891H240.138C238.48 70.4891 237.053 71.6594 236.727 73.2853L236.6 73.9201C236.402 74.9135 237.162 75.8403 238.175 75.8403H257.843C262.615 75.8403 266.171 80.2434 265.167 84.909L259.491 111.263C258.244 117.056 253.123 121.191 247.198 121.191H196.115C194.583 121.191 193.441 119.779 193.76 118.281L196.788 104.089C197.157 102.36 198.684 101.125 200.451 101.125H226.711C227.728 101.125 228.604 100.41 228.808 99.4142L229.198 97.5138C229.368 96.6842 228.734 95.9072 227.887 95.9072H208.535C203.431 95.9072 199.623 91.2057 200.683 86.2128Z" fill="white"/>
<path d="M307.002 117.961L320.67 53.5246C321.037 51.7939 322.565 50.5561 324.335 50.5561H363.603C365.308 50.5561 366.578 52.1302 366.218 53.7971L363.14 68.0342C362.847 69.3887 361.649 70.3554 360.263 70.3554H353.196C351.681 70.3554 350.372 71.4148 350.056 72.8967L340.348 118.438C340.006 120.044 338.588 121.191 336.947 121.191H309.619C307.918 121.191 306.649 119.625 307.002 117.961Z" fill="white"/>
</svg>
